<svg width="150" height="150" viewBox="0 0 150 150" fill="none" xmlns="http://www.w3.org/2000/svg">
<path d="M83.0039 78.3164L59.5664 101.754C59.1309 102.189 58.6139 102.535 58.0448 102.771C57.4758 103.006 56.8659 103.128 56.25 103.128C55.6341 103.128 55.0242 103.006 54.4552 102.771C53.8861 102.535 53.3691 102.189 52.9336 101.754C52.4981 101.318 52.1526 100.801 51.9169 100.232C51.6812 99.6633 51.5599 99.0534 51.5599 98.4375C51.5599 97.8216 51.6812 97.2117 51.9169 96.6427C52.1526 96.0736 52.4981 95.5566 52.9336 95.1211L68.373 79.6875H14.0625C12.8193 79.6875 11.627 79.1936 10.7479 78.3146C9.86886 77.4355 9.375 76.2432 9.375 75C9.375 73.7568 9.86886 72.5645 10.7479 71.6854C11.627 70.8064 12.8193 70.3125 14.0625 70.3125H68.373L52.9336 54.8789C52.054 53.9993 51.5599 52.8064 51.5599 51.5625C51.5599 50.3186 52.054 49.1257 52.9336 48.2461C53.8132 47.3665 55.0061 46.8724 56.25 46.8724C57.4939 46.8724 58.6868 47.3665 59.5664 48.2461L83.0039 71.6836C83.4397 72.1189 83.7855 72.6359 84.0214 73.205C84.2573 73.774 84.3787 74.384 84.3787 75C84.3787 75.616 84.2573 76.226 84.0214 76.795C83.7855 77.3641 83.4397 77.8811 83.0039 78.3164ZM112.5 18.75H79.6875C78.4443 18.75 77.252 19.2439 76.3729 20.1229C75.4939 21.002 75 22.1943 75 23.4375C75 24.6807 75.4939 25.873 76.3729 26.7521C77.252 27.6311 78.4443 28.125 79.6875 28.125H112.5V121.875H79.6875C78.4443 121.875 77.252 122.369 76.3729 123.248C75.4939 124.127 75 125.319 75 126.562C75 127.806 75.4939 128.998 76.3729 129.877C77.252 130.756 78.4443 131.25 79.6875 131.25H112.5C114.986 131.25 117.371 130.262 119.129 128.504C120.887 126.746 121.875 124.361 121.875 121.875V28.125C121.875 25.6386 120.887 23.254 119.129 21.4959C117.371 19.7377 114.986 18.75 112.5 18.75Z" fill="#BC6C25"/>
</svg>
