<svg width="184" height="34" viewBox="0 0 184 34" fill="none" xmlns="http://www.w3.org/2000/svg">
<path d="M71.1485 15.3716L64.1016 21.5216L66.2125 30.6778C66.3242 31.1565 66.2924 31.6574 66.1209 32.1181C65.9494 32.5787 65.646 32.9786 65.2485 33.2677C64.851 33.5569 64.3771 33.7224 63.886 33.7436C63.3949 33.7649 62.9085 33.6409 62.4875 33.3872L54.5016 28.5434L46.5328 33.3872C46.1119 33.6409 45.6254 33.7649 45.1344 33.7436C44.6433 33.7224 44.1694 33.5569 43.7719 33.2677C43.3744 32.9786 43.0709 32.5787 42.8995 32.1181C42.728 31.6574 42.6961 31.1565 42.8078 30.6778L44.9157 21.5309L37.8672 15.3716C37.4944 15.05 37.2248 14.6256 37.0923 14.1515C36.9598 13.6774 36.9702 13.1747 37.1222 12.7064C37.2742 12.2382 37.5611 11.8252 37.9468 11.5194C38.3326 11.2136 38.8001 11.0284 39.2907 10.9872L48.5813 10.1825L52.2078 1.5325C52.3972 1.07862 52.7167 0.690919 53.1259 0.418216C53.5352 0.145513 54.016 0 54.5078 0C54.9997 0 55.4805 0.145513 55.8897 0.418216C56.299 0.690919 56.6185 1.07862 56.8078 1.5325L60.4453 10.1825L69.7328 10.9872C70.2234 11.0284 70.6909 11.2136 71.0767 11.5194C71.4624 11.8252 71.7493 12.2382 71.9013 12.7064C72.0533 13.1747 72.0637 13.6774 71.9312 14.1515C71.7987 14.6256 71.5291 15.05 71.1563 15.3716H71.1485Z" fill="#BC6C25"/>
<path d="M108.148 15.3716L101.102 21.5216L103.213 30.6778C103.324 31.1565 103.292 31.6574 103.121 32.1181C102.949 32.5787 102.646 32.9786 102.248 33.2677C101.851 33.5569 101.377 33.7224 100.886 33.7436C100.395 33.7649 99.9085 33.6409 99.4875 33.3872L91.5016 28.5434L83.5328 33.3872C83.1119 33.6409 82.6254 33.7649 82.1344 33.7436C81.6433 33.7224 81.1694 33.5569 80.7719 33.2677C80.3744 32.9786 80.071 32.5787 79.8995 32.1181C79.728 31.6574 79.6961 31.1565 79.8078 30.6778L81.9157 21.5309L74.8672 15.3716C74.4944 15.05 74.2248 14.6256 74.0923 14.1515C73.9598 13.6774 73.9702 13.1747 74.1222 12.7064C74.2742 12.2382 74.5611 11.8252 74.9468 11.5194C75.3326 11.2136 75.8001 11.0284 76.2907 10.9872L85.5813 10.1825L89.2078 1.5325C89.3972 1.07862 89.7167 0.690919 90.1259 0.418216C90.5352 0.145513 91.016 0 91.5078 0C91.9996 0 92.4805 0.145513 92.8897 0.418216C93.299 0.690919 93.6185 1.07862 93.8078 1.5325L97.4453 10.1825L106.733 10.9872C107.223 11.0284 107.691 11.2136 108.077 11.5194C108.462 11.8252 108.749 12.2382 108.901 12.7064C109.053 13.1747 109.064 13.6774 108.931 14.1515C108.799 14.6256 108.529 15.05 108.156 15.3716H108.148Z" fill="#BC6C25"/>
<path d="M145.148 15.3716L138.102 21.5216L140.213 30.6778C140.324 31.1565 140.292 31.6574 140.121 32.1181C139.949 32.5787 139.646 32.9786 139.248 33.2677C138.851 33.5569 138.377 33.7224 137.886 33.7436C137.395 33.7649 136.909 33.6409 136.488 33.3872L128.502 28.5434L120.533 33.3872C120.112 33.6409 119.625 33.7649 119.134 33.7436C118.643 33.7224 118.169 33.5569 117.772 33.2677C117.374 32.9786 117.071 32.5787 116.899 32.1181C116.728 31.6574 116.696 31.1565 116.808 30.6778L118.916 21.5309L111.867 15.3716C111.494 15.05 111.225 14.6256 111.092 14.1515C110.96 13.6774 110.97 13.1747 111.122 12.7064C111.274 12.2382 111.561 11.8252 111.947 11.5194C112.333 11.2136 112.8 11.0284 113.291 10.9872L122.581 10.1825L126.208 1.5325C126.397 1.07862 126.717 0.690919 127.126 0.418216C127.535 0.145513 128.016 0 128.508 0C129 0 129.48 0.145513 129.89 0.418216C130.299 0.690919 130.618 1.07862 130.808 1.5325L134.445 10.1825L143.733 10.9872C144.223 11.0284 144.691 11.2136 145.077 11.5194C145.462 11.8252 145.749 12.2382 145.901 12.7064C146.053 13.1747 146.064 13.6774 145.931 14.1515C145.799 14.6256 145.529 15.05 145.156 15.3716H145.148Z" fill="#BC6C25"/>
<path d="M182.148 15.3716L175.102 21.5216L177.213 30.6778C177.324 31.1565 177.292 31.6574 177.121 32.1181C176.949 32.5787 176.646 32.9786 176.248 33.2677C175.851 33.5569 175.377 33.7224 174.886 33.7436C174.395 33.7649 173.909 33.6409 173.488 33.3872L165.502 28.5434L157.533 33.3872C157.112 33.6409 156.625 33.7649 156.134 33.7436C155.643 33.7224 155.169 33.5569 154.772 33.2677C154.374 32.9786 154.071 32.5787 153.899 32.1181C153.728 31.6574 153.696 31.1565 153.808 30.6778L155.916 21.5309L148.867 15.3716C148.494 15.05 148.225 14.6256 148.092 14.1515C147.96 13.6774 147.97 13.1747 148.122 12.7064C148.274 12.2382 148.561 11.8252 148.947 11.5194C149.333 11.2136 149.8 11.0284 150.291 10.9872L159.581 10.1825L163.208 1.5325C163.397 1.07862 163.717 0.690919 164.126 0.418216C164.535 0.145513 165.016 0 165.508 0C166 0 166.48 0.145513 166.89 0.418216C167.299 0.690919 167.618 1.07862 167.808 1.5325L171.445 10.1825L180.733 10.9872C181.223 11.0284 181.691 11.2136 182.077 11.5194C182.462 11.8252 182.749 12.2382 182.901 12.7064C183.053 13.1747 183.064 13.6774 182.931 14.1515C182.799 14.6256 182.529 15.05 182.156 15.3716H182.148Z" fill="#BC6C25"/>
<path d="M34.1485 15.3716L27.1016 21.5216L29.2125 30.6778C29.3242 31.1565 29.2924 31.6574 29.1209 32.1181C28.9494 32.5787 28.646 32.9786 28.2485 33.2677C27.851 33.5569 27.3771 33.7224 26.886 33.7436C26.3949 33.7649 25.9085 33.6409 25.4875 33.3872L17.5016 28.5434L9.53285 33.3872C9.11186 33.6409 8.62543 33.7649 8.13437 33.7436C7.6433 33.7224 7.1694 33.5569 6.7719 33.2677C6.3744 32.9786 6.07095 32.5787 5.89948 32.1181C5.72802 31.6574 5.69614 31.1565 5.80785 30.6778L7.91566 21.5309L0.867222 15.3716C0.494423 15.05 0.224851 14.6256 0.0923096 14.1515C-0.0402314 13.6774 -0.0298408 13.1747 0.122178 12.7064C0.274198 12.2382 0.561078 11.8252 0.946844 11.5194C1.33261 11.2136 1.80009 11.0284 2.29066 10.9872L11.5813 10.1825L15.2078 1.5325C15.3972 1.07862 15.7167 0.690919 16.1259 0.418216C16.5352 0.145513 17.016 0 17.5078 0C17.9997 0 18.4805 0.145513 18.8897 0.418216C19.299 0.690919 19.6185 1.07862 19.8078 1.5325L23.4453 10.1825L32.7328 10.9872C33.2234 11.0284 33.6909 11.2136 34.0767 11.5194C34.4624 11.8252 34.7493 12.2382 34.9013 12.7064C35.0533 13.1747 35.0637 13.6774 34.9312 14.1515C34.7987 14.6256 34.5291 15.05 34.1563 15.3716H34.1485Z" fill="#BC6C25"/>
</svg>
