<svg width="56" height="12" viewBox="0 0 56 12" fill="none" xmlns="http://www.w3.org/2000/svg">
<path d="M10.0761 5.36156L8.13824 7.20656L8.71875 9.95344C8.74947 10.097 8.7407 10.2473 8.69355 10.3855C8.6464 10.5237 8.56295 10.6437 8.45363 10.7304C8.34432 10.8171 8.214 10.8668 8.07896 10.8732C7.94391 10.8796 7.81015 10.8424 7.69438 10.7662L5.49824 9.31312L3.30684 10.7662C3.19107 10.8424 3.0573 10.8796 2.92225 10.8732C2.78721 10.8668 2.65689 10.8171 2.54758 10.7304C2.43826 10.6437 2.35481 10.5237 2.30766 10.3855C2.26051 10.2473 2.25174 10.097 2.28246 9.95344L2.86211 7.20937L0.923789 5.36156C0.821269 5.2651 0.747137 5.13777 0.710688 4.99554C0.674239 4.8533 0.677097 4.70249 0.718902 4.56202C0.760707 4.42155 0.839599 4.29767 0.945685 4.20591C1.05177 4.11416 1.18033 4.05862 1.31523 4.04625L3.87016 3.80484L4.86746 1.20984C4.91954 1.07368 5.00739 0.957369 5.11994 0.875558C5.23249 0.793747 5.36471 0.750093 5.49996 0.750093C5.63521 0.750093 5.76743 0.793747 5.87998 0.875558C5.99253 0.957369 6.08038 1.07368 6.13246 1.20984L7.13277 3.80484L9.68684 4.04625C9.82174 4.05862 9.9503 4.11416 10.0564 4.20591C10.1625 4.29767 10.2414 4.42155 10.2832 4.56202C10.325 4.70249 10.3278 4.8533 10.2914 4.99554C10.2549 5.13777 10.1808 5.2651 10.0783 5.36156H10.0761Z" fill="#DDA15E"/>
<path d="M21.0761 5.36156L19.1382 7.20656L19.7188 9.95344C19.7495 10.097 19.7407 10.2473 19.6935 10.3855C19.6464 10.5237 19.5629 10.6437 19.4536 10.7304C19.3443 10.8171 19.214 10.8668 19.079 10.8732C18.9439 10.8796 18.8101 10.8424 18.6944 10.7662L16.4982 9.31312L14.3068 10.7662C14.1911 10.8424 14.0573 10.8796 13.9223 10.8732C13.7872 10.8668 13.6569 10.8171 13.5476 10.7304C13.4383 10.6437 13.3548 10.5237 13.3077 10.3855C13.2605 10.2473 13.2517 10.097 13.2825 9.95344L13.8621 7.20937L11.9238 5.36156C11.8213 5.2651 11.7471 5.13777 11.7107 4.99554C11.6742 4.8533 11.6771 4.70249 11.7189 4.56202C11.7607 4.42155 11.8396 4.29767 11.9457 4.20591C12.0518 4.11416 12.1803 4.05862 12.3152 4.04625L14.8702 3.80484L15.8675 1.20984C15.9195 1.07368 16.0074 0.957369 16.1199 0.875558C16.2325 0.793747 16.3647 0.750093 16.5 0.750093C16.6352 0.750093 16.7674 0.793747 16.88 0.875558C16.9925 0.957369 17.0804 1.07368 17.1325 1.20984L18.1328 3.80484L20.6868 4.04625C20.8217 4.05862 20.9503 4.11416 21.0564 4.20591C21.1625 4.29767 21.2414 4.42155 21.2832 4.56202C21.325 4.70249 21.3278 4.8533 21.2914 4.99554C21.2549 5.13777 21.1808 5.2651 21.0783 5.36156H21.0761Z" fill="#DDA15E"/>
<path d="M32.0761 5.36156L30.1382 7.20656L30.7188 9.95344C30.7495 10.097 30.7407 10.2473 30.6935 10.3855C30.6464 10.5237 30.5629 10.6437 30.4536 10.7304C30.3443 10.8171 30.214 10.8668 30.079 10.8732C29.9439 10.8796 29.8101 10.8424 29.6944 10.7662L27.4982 9.31312L25.3068 10.7662C25.1911 10.8424 25.0573 10.8796 24.9223 10.8732C24.7872 10.8668 24.6569 10.8171 24.5476 10.7304C24.4383 10.6437 24.3548 10.5237 24.3077 10.3855C24.2605 10.2473 24.2517 10.097 24.2825 9.95344L24.8621 7.20937L22.9238 5.36156C22.8213 5.2651 22.7471 5.13777 22.7107 4.99554C22.6742 4.8533 22.6771 4.70249 22.7189 4.56202C22.7607 4.42155 22.8396 4.29767 22.9457 4.20591C23.0518 4.11416 23.1803 4.05862 23.3152 4.04625L25.8702 3.80484L26.8675 1.20984C26.9195 1.07368 27.0074 0.957369 27.1199 0.875558C27.2325 0.793747 27.3647 0.750093 27.5 0.750093C27.6352 0.750093 27.7674 0.793747 27.88 0.875558C27.9925 0.957369 28.0804 1.07368 28.1325 1.20984L29.1328 3.80484L31.6868 4.04625C31.8217 4.05862 31.9503 4.11416 32.0564 4.20591C32.1625 4.29767 32.2414 4.42155 32.2832 4.56202C32.325 4.70249 32.3278 4.8533 32.2914 4.99554C32.2549 5.13777 32.1808 5.2651 32.0783 5.36156H32.0761Z" fill="#DDA15E"/>
<path d="M43.0761 5.36156L41.1382 7.20656L41.7188 9.95344C41.7495 10.097 41.7407 10.2473 41.6935 10.3855C41.6464 10.5237 41.5629 10.6437 41.4536 10.7304C41.3443 10.8171 41.214 10.8668 41.079 10.8732C40.9439 10.8796 40.8101 10.8424 40.6944 10.7662L38.4982 9.31312L36.3068 10.7662C36.1911 10.8424 36.0573 10.8796 35.9223 10.8732C35.7872 10.8668 35.6569 10.8171 35.5476 10.7304C35.4383 10.6437 35.3548 10.5237 35.3077 10.3855C35.2605 10.2473 35.2517 10.097 35.2825 9.95344L35.8621 7.20937L33.9238 5.36156C33.8213 5.2651 33.7471 5.13777 33.7107 4.99554C33.6742 4.8533 33.6771 4.70249 33.7189 4.56202C33.7607 4.42155 33.8396 4.29767 33.9457 4.20591C34.0518 4.11416 34.1803 4.05862 34.3152 4.04625L36.8702 3.80484L37.8675 1.20984C37.9195 1.07368 38.0074 0.957369 38.1199 0.875558C38.2325 0.793747 38.3647 0.750093 38.5 0.750093C38.6352 0.750093 38.7674 0.793747 38.88 0.875558C38.9925 0.957369 39.0804 1.07368 39.1325 1.20984L40.1328 3.80484L42.6868 4.04625C42.8217 4.05862 42.9503 4.11416 43.0564 4.20591C43.1625 4.29767 43.2414 4.42155 43.2832 4.56202C43.325 4.70249 43.3278 4.8533 43.2914 4.99554C43.2549 5.13777 43.1808 5.2651 43.0783 5.36156H43.0761Z" fill="#DDA15E"/>
<path d="M55.1235 4.58906C55.0848 4.46612 55.0102 4.35757 54.9093 4.27738C54.8084 4.19718 54.6858 4.14901 54.5573 4.13906L51.7701 3.89812C51.7532 3.89647 51.7371 3.89028 51.7235 3.88021C51.7099 3.87014 51.6993 3.85657 51.6927 3.84094L50.6038 1.24594C50.5534 1.12756 50.4693 1.02661 50.3619 0.955663C50.2546 0.884712 50.1288 0.846884 50.0001 0.846884C49.8714 0.846884 49.7456 0.884712 49.6382 0.955663C49.5309 1.02661 49.4468 1.12756 49.3963 1.24594L48.3074 3.84094C48.3009 3.85657 48.2903 3.87014 48.2766 3.88021C48.263 3.89028 48.2469 3.89647 48.2301 3.89812L45.4429 4.13906C45.3144 4.14901 45.1918 4.19718 45.0909 4.27738C44.99 4.35757 44.9154 4.46612 44.8766 4.58906C44.8356 4.71218 44.8321 4.84469 44.8663 4.96984C44.9006 5.09499 44.9713 5.20717 45.0693 5.29219L47.1838 7.13672C47.1968 7.14822 47.2064 7.16299 47.2117 7.17948C47.2169 7.19598 47.2177 7.21359 47.2138 7.23047L46.5782 9.97312C46.5486 10.0994 46.557 10.2316 46.6025 10.3531C46.648 10.4746 46.7284 10.5798 46.8337 10.6556C46.9373 10.7321 47.0615 10.7757 47.1901 10.7809C47.3188 10.7861 47.4461 10.7526 47.5555 10.6847L49.9513 9.23156C49.9654 9.22285 49.9816 9.21823 49.9982 9.21823C50.0148 9.21823 50.031 9.22285 50.0451 9.23156L52.4409 10.6847C52.5514 10.7524 52.6796 10.7858 52.8091 10.7808C52.9387 10.7757 53.0639 10.7324 53.1688 10.6562C53.2738 10.5801 53.3538 10.4746 53.3989 10.353C53.4439 10.2315 53.452 10.0993 53.422 9.97312L52.7882 7.22953C52.7843 7.21265 52.7851 7.19504 52.7904 7.17855C52.7956 7.16205 52.8053 7.14728 52.8182 7.13578L54.9327 5.29125C55.0303 5.20608 55.1004 5.09397 55.1344 4.96902C55.1683 4.84407 55.1645 4.71187 55.1235 4.58906ZM54.561 4.86656L52.4465 6.71109C52.3564 6.78949 52.2894 6.89099 52.2527 7.00465C52.216 7.11831 52.2111 7.23982 52.2384 7.35609L52.8721 10.0997C52.8768 10.1181 52.8758 10.1375 52.8691 10.1554C52.8625 10.1732 52.8506 10.1886 52.8351 10.1995C52.821 10.2108 52.8037 10.2173 52.7856 10.2181C52.7676 10.2188 52.7498 10.2138 52.7348 10.2037L50.339 8.75062C50.2368 8.68854 50.1196 8.65571 50.0001 8.65571C49.8805 8.65571 49.7633 8.68854 49.6612 8.75062L47.2654 10.2037C47.2504 10.2138 47.2326 10.2188 47.2145 10.2181C47.1965 10.2173 47.1792 10.2108 47.1651 10.1995C47.1495 10.1886 47.1376 10.1732 47.131 10.1554C47.1244 10.1375 47.1234 10.1181 47.128 10.0997L47.7618 7.35609C47.7891 7.23982 47.7841 7.11831 47.7474 7.00465C47.7108 6.89099 47.6438 6.78949 47.5537 6.71109L45.4391 4.86656C45.4247 4.85426 45.4143 4.83786 45.4094 4.81953C45.4044 4.8012 45.4052 4.7818 45.4115 4.76391C45.4162 4.74608 45.4265 4.73022 45.4408 4.71859C45.4551 4.70697 45.4728 4.70019 45.4912 4.69922L48.2788 4.45828C48.3982 4.44811 48.5125 4.40548 48.6093 4.335C48.7061 4.26451 48.7818 4.16887 48.8282 4.05844L49.9171 1.46344C49.9247 1.44733 49.9367 1.43371 49.9517 1.42417C49.9667 1.41464 49.9842 1.40957 50.002 1.40957C50.0197 1.40957 50.0372 1.41464 50.0522 1.42417C50.0672 1.43371 50.0792 1.44733 50.0868 1.46344L51.172 4.05844C51.2182 4.16861 51.2936 4.26407 51.3901 4.33454C51.4866 4.405 51.6004 4.44778 51.7195 4.45828L54.5071 4.69922C54.5255 4.70019 54.5432 4.70697 54.5575 4.71859C54.5718 4.73022 54.5821 4.74608 54.5868 4.76391C54.5933 4.78162 54.5944 4.8009 54.5898 4.81922C54.5852 4.83754 54.5752 4.85404 54.561 4.86656Z" fill="#DDA15E"/>
</svg>
