<svg width="150" height="150" viewBox="0 0 150 150" fill="none" xmlns="http://www.w3.org/2000/svg">
<path d="M100.781 70.3125C100.781 75.4115 99.2692 80.3961 96.4363 84.6358C93.6035 88.8755 89.577 92.1799 84.8661 94.1313C80.1552 96.0826 74.9714 96.5931 69.9704 95.5984C64.9693 94.6036 60.3755 92.1482 56.7699 88.5426C53.1644 84.937 50.7089 80.3432 49.7142 75.3422C48.7194 70.3411 49.2299 65.1573 51.1813 60.4464C53.1326 55.7355 56.437 51.7091 60.6767 48.8762C64.9164 46.0433 69.901 44.5312 75 44.5312C81.8353 44.539 88.3883 47.2577 93.2216 52.091C98.0548 56.9242 100.774 63.4773 100.781 70.3125ZM135.938 75C135.938 87.0523 132.364 98.8339 125.668 108.855C118.972 118.876 109.455 126.687 98.3198 131.299C87.1849 135.911 74.9324 137.118 63.1117 134.767C51.291 132.415 40.433 126.612 31.9107 118.089C23.3884 109.567 17.5847 98.709 15.2334 86.8883C12.8821 75.0676 14.0889 62.8151 18.7011 51.6802C23.3133 40.5454 31.1238 31.0282 41.145 24.3323C51.1661 17.6364 62.9477 14.0625 75 14.0625C91.1564 14.0796 106.646 20.5052 118.071 31.9295C129.495 43.3538 135.92 58.8436 135.938 75ZM126.563 75C126.555 68.0598 125.148 61.1923 122.425 54.8084C119.703 48.4244 115.721 42.655 110.718 37.8453C105.714 33.0356 99.7924 29.2843 93.306 26.8158C86.8196 24.3473 79.902 23.2122 72.9668 23.4785C45.3692 24.5449 23.3614 47.5312 23.4375 75.1465C23.464 87.7179 28.1005 99.843 36.4688 109.225C39.8767 104.282 44.2057 100.042 49.2188 96.7383C49.6462 96.456 50.1543 96.3215 50.6654 96.3553C51.1765 96.3892 51.6624 96.5896 52.0489 96.9258C58.419 102.436 66.56 105.468 74.9824 105.468C83.4049 105.468 91.5459 102.436 97.916 96.9258C98.3025 96.5896 98.7884 96.3892 99.2995 96.3553C99.8106 96.3215 100.319 96.456 100.746 96.7383C105.765 100.04 110.101 104.28 113.514 109.225C121.923 99.8088 126.569 87.6245 126.563 75Z" fill="#FEFAE0"/>
</svg>
